<svg width="701" height="402" viewBox="0 0 701 402" fill="none" xmlns="http://www.w3.org/2000/svg">
<path d="M168 257.755L170.694 266.081H179.413L172.359 271.227L175.053 279.552L168 274.407L160.947 279.552L163.641 271.227L156.587 266.081H165.306L168 257.755Z" fill="#FB8500"/>
<path d="M12 213.576L14.6942 221.901H23.4127L16.3593 227.047L19.0534 235.373L12 230.227L4.94658 235.373L7.64074 227.047L0.587322 221.901H9.30583L12 213.576Z" fill="#FB8500"/>
<path d="M479 285.87L481.694 294.196H490.413L483.359 299.341L486.053 307.667L479 302.521L471.947 307.667L474.641 299.341L467.587 294.196H476.306L479 285.87Z" fill="#FB8500"/>
<path d="M216 67.983L218.694 76.3087H227.413L220.359 81.4542L223.053 89.7799L216 84.6344L208.947 89.7799L211.641 81.4542L204.587 76.3087H213.306L216 67.983Z" fill="#FB8500"/>
<path d="M467 43.8849L469.694 52.2106H478.413L471.359 57.3562L474.053 65.6818L467 60.5363L459.947 65.6818L462.641 57.3562L455.587 52.2106H464.306L467 43.8849Z" fill="#FB8500"/>
<path d="M76 105.134L78.6942 113.46H87.4127L80.3593 118.605L83.0534 126.931L76 121.786L68.9466 126.931L71.6407 118.605L64.5873 113.46H73.3058L76 105.134Z" fill="#FB8500"/>
<path d="M644 50.9135L647.592 62.0145H659.217L649.812 68.8752L653.405 79.9761L644 73.1154L634.595 79.9761L638.188 68.8752L628.783 62.0145H640.408L644 50.9135Z" fill="#FB8500"/>
<path d="M689 248.719L691.694 257.044H700.413L693.359 262.19L696.053 270.516L689 265.37L681.947 270.516L684.641 262.19L677.587 257.044H686.306L689 248.719Z" fill="#FB8500"/>
<path d="M341 249.723L343.694 258.048H352.413L345.359 263.194L348.053 271.52L341 266.374L333.947 271.52L336.641 263.194L329.587 258.048H338.306L341 249.723Z" fill="#FB8500"/>
<path d="M543.523 276.318C388.198 252.426 226.794 337.942 199.825 276.068C172.856 214.193 339.057 162.566 408.623 131.77C478.19 100.973 595.333 75.8234 571.615 136.899C547.897 197.974 294.246 6.11903 348.183 129.868" stroke="#FB8500" stroke-width="2.6438"/>
<g clip-path="url(#clip0_10_842)">
<path d="M624.182 54.7473C625.848 56.725 626.076 59.5395 624.864 63.1907C623.651 66.8419 621.606 70.1128 618.727 73.0034L609.58 82.1885L618.67 121.896C618.86 122.618 618.633 123.246 617.989 123.778L610.716 129.255C610.451 129.483 610.091 129.597 609.636 129.597C609.485 129.597 609.352 129.578 609.239 129.54C608.67 129.426 608.273 129.122 608.045 128.628L592.193 99.6459L577.477 114.422L580.489 125.49C580.678 126.136 580.526 126.726 580.034 127.258L574.58 132.735C574.239 133.077 573.803 133.249 573.273 133.249H573.159C572.591 133.173 572.136 132.925 571.795 132.507L561.057 118.13L546.739 107.348C546.322 107.081 546.076 106.644 546 106.036C545.962 105.541 546.133 105.066 546.511 104.609L551.966 99.0754C552.307 98.7331 552.742 98.562 553.273 98.562C553.5 98.562 553.651 98.581 553.727 98.619L564.75 101.643L579.466 86.8666L550.602 70.9496C550.072 70.6453 549.75 70.1889 549.636 69.5804C549.561 68.9718 549.731 68.4584 550.148 68.04L557.42 60.7376C557.951 60.2431 558.519 60.091 559.125 60.2811L596.909 69.3522L606 60.2241C608.879 57.3335 612.136 55.2797 615.773 54.0627C619.409 52.8456 622.212 53.0738 624.182 54.7473Z" fill="#FB8500"/>
</g>
<defs>
<clipPath id="clip0_10_842">
<rect width="80" height="80.327" fill="white" transform="translate(546 52.9217)"/>
</clipPath>
</defs>
</svg>
