<svg width="550" height="209" viewBox="0 0 550 209" fill="none" xmlns="http://www.w3.org/2000/svg">
<path d="M131.651 168.094L133.762 174.61H140.594L135.067 178.638L137.178 185.155L131.651 181.127L126.124 185.155L128.235 178.638L122.707 174.61H129.54L131.651 168.094Z" fill="#FB8500"/>
<path d="M9.40363 133.512L11.5149 140.029H18.347L12.8197 144.057L14.9309 150.573L9.40363 146.546L3.87632 150.573L5.98756 144.057L0.460246 140.029H7.29239L9.40363 133.512Z" fill="#FB8500"/>
<path d="M375.362 190.1L377.473 196.617H384.305L378.778 200.645L380.889 207.161L375.362 203.134L369.834 207.161L371.946 200.645L366.418 196.617H373.25L375.362 190.1Z" fill="#FB8500"/>
<path d="M169.265 19.5508L171.377 26.0676H178.209L172.681 30.0953L174.793 36.6122L169.265 32.5845L163.738 36.6122L165.849 30.0953L160.322 26.0676H167.154L169.265 19.5508Z" fill="#FB8500"/>
<path d="M365.958 0.688232L368.069 7.2051H374.901L369.374 11.2327L371.485 17.7496L365.958 13.722L360.431 17.7496L362.542 11.2327L357.015 7.2051H363.847L365.958 0.688232Z" fill="#FB8500"/>
<path d="M59.5563 48.6306L61.6676 55.1475H68.4997L62.9724 59.1751L65.0837 65.692L59.5563 61.6643L54.029 65.692L56.1403 59.1751L50.613 55.1475H57.4451L59.5563 48.6306Z" fill="#FB8500"/>
<path d="M504.662 6.18958L507.477 14.8787H516.586L509.216 20.2489L512.031 28.9381L504.662 23.5679L497.292 28.9381L500.107 20.2489L492.737 14.8787H501.847L504.662 6.18958Z" fill="#FB8500"/>
<path d="M539.925 161.02L542.036 167.537H548.869L543.341 171.565L545.452 178.082L539.925 174.054L534.398 178.082L536.509 171.565L530.982 167.537H537.814L539.925 161.02Z" fill="#FB8500"/>
<path d="M267.22 161.806L269.331 168.323H276.163L270.636 172.351L272.747 178.868L267.22 174.84L261.692 178.868L263.804 172.351L258.276 168.323H265.109L267.22 161.806Z" fill="#FB8500"/>
</svg>
